<svg version="1.1" id="Layer_1" xmlns="http://www.w3.org/2000/svg" xmlns:xlink="http://www.w3.org/1999/xlink" x="0px" y="0px"
	 width="100%" viewBox="0 0 1200 1200" enable-background="new 0 0 1200 1200" xml:space="preserve">
<path fill="#FFFFFF" opacity="0.000000" stroke="none" 
	d="
M792.000000,1201.000000 
	C528.000000,1201.000000 264.500000,1201.000000 1.000000,1201.000000 
	C1.000000,801.000000 1.000000,401.000000 1.000000,1.000000 
	C401.000000,1.000000 801.000000,1.000000 1201.000000,1.000000 
	C1201.000000,401.000000 1201.000000,801.000000 1201.000000,1201.000000 
	C1064.833374,1201.000000 928.666687,1201.000000 792.000000,1201.000000 
M376.830078,280.672241 
	C371.100952,274.820374 365.371857,268.968506 358.915527,262.373779 
	C358.915527,397.747314 358.915527,531.651855 358.915527,665.840149 
	C375.199219,665.840149 391.172638,665.906860 407.143433,665.733582 
	C408.686981,665.716797 410.502563,664.509583 411.701141,663.348450 
	C418.163208,657.087769 424.615326,650.801697 430.732697,644.210510 
	C432.335602,642.483459 433.562592,639.639404 433.565887,637.306335 
	C433.704803,538.653564 433.704895,440.000610 433.563965,341.347870 
	C433.560669,339.042236 432.324066,336.173248 430.694916,334.521912 
	C413.029602,316.616455 395.170380,298.902283 376.830078,280.672241 
M768.263672,409.500000 
	C768.263672,494.888763 768.263672,580.277527 768.263672,665.524414 
	C793.695618,665.524414 818.281006,665.524414 842.853638,665.524414 
	C842.853638,531.388367 842.853638,397.621674 842.853638,263.530396 
	C842.051025,264.016663 841.728577,264.136261 841.506897,264.357056 
	C817.793640,287.980286 794.052429,311.575897 770.471191,335.330261 
	C769.075806,336.735931 768.369873,339.417542 768.355896,341.512115 
	C768.207458,363.840637 768.263855,386.170502 768.263672,409.500000 
M741.190552,536.500000 
	C741.190552,485.151276 741.190552,433.802582 741.190552,381.830048 
	C739.899231,382.667755 739.434387,382.868988 739.099182,383.201050 
	C715.425842,406.647888 691.737976,430.080170 668.170410,453.632935 
	C666.956360,454.846222 666.205750,457.096893 666.203186,458.865967 
	C666.105469,526.362000 666.141724,593.858215 666.060852,661.354309 
	C666.056641,664.854309 667.182617,665.960327 670.662903,665.941223 
	C692.994263,665.818726 715.326660,665.880737 737.658691,665.864746 
	C738.619080,665.864075 739.579346,665.691833 741.190857,665.536926 
	C741.190857,622.706848 741.190857,580.103394 741.190552,536.500000 
M564.093811,555.217041 
	C564.093811,591.958130 564.093811,628.699219 564.093811,665.479370 
	C589.530884,665.479370 614.171631,665.479370 638.690063,665.479370 
	C638.690063,599.317200 638.690063,533.447266 638.690063,467.577332 
	C638.192505,467.219208 637.694885,466.861084 637.197327,466.502960 
	C636.187317,468.034058 635.401733,469.788574 634.133667,471.062866 
	C614.508057,490.784393 595.062256,510.695374 575.018005,529.983887 
	C567.768433,536.960022 561.859985,543.689697 564.093811,555.217041 
M499.283295,404.216766 
	C486.788483,391.722198 474.293640,379.227600 461.221588,366.155823 
	C461.221588,444.431671 461.221588,521.420837 461.221588,598.649231 
	C461.887299,598.256653 462.206329,598.145203 462.422394,597.930237 
	C486.162689,574.314331 509.929901,550.725220 533.541626,526.981445 
	C534.948975,525.566223 535.738098,522.912354 535.750366,520.828674 
	C535.898315,495.499603 535.932068,470.168610 535.711121,444.840607 
	C535.689514,442.366058 534.382446,439.321838 532.647827,437.538025 
	C521.855469,426.439636 510.770844,415.625427 499.283295,404.216766 
M644.353943,288.854126 
	C652.878113,280.334930 661.402283,271.815704 670.703857,262.519501 
	C623.809204,262.519501 578.199951,262.519501 533.039062,262.519501 
	C555.868591,285.364105 578.784912,308.295624 601.920044,331.446106 
	C615.674988,317.643280 629.767456,303.501709 644.353943,288.854126 
M512.523499,592.034119 
	C488.287201,616.580933 464.050934,641.127808 439.845276,665.643616 
	C472.046783,665.643616 504.290710,665.643616 536.618896,665.643616 
	C536.618896,633.153870 536.618896,600.936279 536.618896,567.452271 
	C528.169434,576.063538 520.588379,583.789856 512.523499,592.034119 
M435.375000,830.130859 
	C442.745178,828.405212 446.953125,823.385620 447.757416,816.267456 
	C448.758881,807.404236 450.167572,797.920227 438.936737,792.997437 
	C439.923462,792.278809 440.433197,791.951965 440.893127,791.565796 
	C447.260773,786.219360 447.409119,779.111816 445.820343,771.938599 
	C444.462555,765.808411 439.824249,762.089233 433.770416,761.651367 
	C424.352997,760.970093 414.860474,760.985107 405.420593,761.309875 
	C403.933289,761.360962 401.340302,764.575439 401.313385,766.358398 
	C401.016968,785.978882 401.146149,805.605591 401.111176,825.230469 
	C401.104919,828.739563 403.121826,830.821777 406.186707,830.849365 
	C415.642029,830.934509 425.101624,830.550476 435.375000,830.130859 
M639.326294,788.683472 
	C642.627441,773.422607 637.624329,763.735596 624.014282,761.734619 
	C614.883850,760.392273 605.439453,760.913269 596.153503,761.194458 
	C594.760803,761.236694 592.328003,764.516541 592.301880,766.326416 
	C592.020935,785.787964 592.093933,805.255188 592.151489,824.720581 
	C592.164551,829.134338 594.668152,831.064880 599.802673,831.003479 
	C605.007996,830.941284 607.052185,829.154663 607.082947,824.468628 
	C607.128601,817.513367 607.094788,810.557495 607.094788,803.794983 
	C611.741272,802.126953 614.139709,803.681946 615.968872,807.757507 
	C618.881592,814.247009 622.354004,820.487976 625.657776,826.798401 
	C628.245605,831.741455 631.558044,832.775269 636.110291,830.192566 
	C640.941895,827.451294 641.756165,824.484741 639.046814,819.577942 
	C635.636353,813.401184 632.238770,807.217224 629.778625,802.749084 
	C633.422607,797.554749 636.266296,793.501099 639.326294,788.683472 
M705.012634,812.486084 
	C705.039429,801.679382 705.285339,790.867432 705.027039,780.067566 
	C704.801331,770.630188 699.355164,763.456482 690.134460,762.137512 
	C681.167542,760.854858 671.952271,761.079224 662.847900,761.113403 
	C659.799805,761.124878 658.054321,763.375854 658.074280,766.909119 
	C658.182434,786.033875 658.189209,805.159912 658.080322,824.284668 
	C658.053467,829.015137 660.362854,830.955688 664.731995,830.991882 
	C671.217468,831.045593 677.712463,831.216370 684.187927,830.955322 
	C695.758057,830.488831 702.406921,824.725159 705.012634,812.486084 
M571.750061,775.951721 
	C570.081909,769.820679 566.725525,764.607178 560.481506,763.102234 
	C554.655823,761.697998 548.286926,760.870178 542.419312,761.682495 
	C531.686035,763.168457 526.423096,769.330872 525.787781,780.189575 
	C525.215393,789.972351 525.127747,799.823120 525.535583,809.614380 
	C526.155640,824.500610 533.745239,831.423828 548.711182,831.631165 
	C563.623047,831.837891 571.906921,824.544067 572.431641,809.664673 
	C572.817749,798.716919 572.125122,787.731018 571.750061,775.951721 
M484.505615,760.904480 
	C480.341675,760.920593 476.173706,760.829224 472.014923,760.984192 
	C468.107971,761.129639 466.046295,762.965820 466.073486,767.258606 
	C466.193787,786.247192 466.214325,805.237671 466.063538,824.225769 
	C466.025513,829.011658 468.310425,830.950989 472.642487,830.980469 
	C483.802368,831.056396 494.969360,831.190247 506.116791,830.810486 
	C507.818268,830.752502 510.415222,828.354919 510.904358,826.574219 
	C512.524231,820.677307 510.070312,817.998962 503.902710,817.994507 
	C496.325989,817.989014 488.749298,817.993164 481.427246,817.993164 
	C481.427246,812.132141 481.427246,807.039001 481.427246,801.658447 
	C485.729980,801.658447 489.707245,801.545593 493.675232,801.689636 
	C497.792603,801.839050 499.981903,800.099426 499.999847,795.910889 
	C500.017700,791.748474 497.874908,789.895447 493.755157,789.989746 
	C489.653778,790.083618 485.548584,790.010315 481.351379,790.010315 
	C481.351379,784.434692 481.351379,779.369629 481.351379,773.952271 
	C489.541321,773.952271 497.480377,773.866028 505.416382,773.984131 
	C510.295471,774.056641 511.268646,770.945679 511.262787,767.135681 
	C511.257141,763.435547 510.130157,760.699646 505.490540,760.849609 
	C498.834564,761.064880 492.166473,760.904419 484.505615,760.904480 
M769.645325,831.006836 
	C779.308105,831.006775 788.972046,830.921753 798.633057,831.051086 
	C802.206421,831.098816 803.738220,829.450195 804.159546,826.118164 
	C804.909729,820.184998 803.007324,817.998535 796.889221,817.994324 
	C789.312622,817.989136 781.736023,817.993164 774.436646,817.993164 
	C774.436646,812.121521 774.436646,807.030029 774.436646,801.634766 
	C778.916077,801.634766 783.058777,801.549072 787.196289,801.659180 
	C791.248230,801.767029 792.968811,799.678955 792.993835,795.887695 
	C793.019104,792.066895 791.198059,789.981506 787.230225,790.003418 
	C782.962158,790.027039 778.693848,790.008789 774.361328,790.008789 
	C774.361328,784.414429 774.361328,779.349060 774.361328,773.946350 
	C782.732544,773.946350 790.841187,773.957458 798.949768,773.942017 
	C803.610840,773.933105 804.260071,770.601929 804.247864,767.101257 
	C804.236023,763.716919 803.411072,760.830994 798.955383,760.871948 
	C787.960754,760.972961 776.963928,760.837097 765.969238,760.937317 
	C760.546021,760.986755 759.131042,762.640747 759.128418,768.302734 
	C759.120178,785.962280 759.125366,803.621887 759.125427,821.281433 
	C759.125488,830.153748 759.945435,830.986755 769.645325,831.006836 
M739.049133,765.085022 
	C737.155090,759.590637 732.582153,760.796997 728.638672,761.236816 
	C724.712219,761.674744 724.034119,764.590210 724.061462,768.203613 
	C724.200195,786.531128 724.118896,804.860229 724.129272,823.188782 
	C724.132568,829.013916 726.163147,831.064392 731.786499,831.004272 
	C737.441650,830.943787 739.093323,829.136414 739.094238,822.969177 
	C739.096985,803.974121 739.093384,784.979126 739.049133,765.085022 
M680.000122,916.434387 
	C678.919739,914.427612 677.839355,912.420776 676.670532,910.249573 
	C677.561523,909.734863 678.099548,909.379700 678.674011,909.099060 
	C684.215759,906.391296 686.001709,902.641846 685.123901,895.520508 
	C684.510742,890.545776 681.670288,887.409912 675.935852,886.546692 
	C671.856750,885.932617 667.631592,886.362061 663.492004,886.052795 
	C660.236633,885.809509 659.026123,887.009460 659.056519,890.273682 
	C659.166687,902.103455 659.002075,913.936768 659.226868,925.763306 
	C659.254089,927.195435 661.021301,928.594482 661.981995,930.008850 
	C662.736816,928.612915 664.063477,927.248535 664.142700,925.815247 
	C664.413696,920.910461 664.246521,915.981506 664.246521,911.235229 
	C669.164612,909.730286 671.969666,910.994263 673.785828,915.316528 
	C675.644104,919.738892 677.977173,923.981995 680.394043,928.133728 
	C680.931396,929.056885 682.689209,929.269592 683.885132,929.809387 
	C684.237549,928.512695 685.226013,926.957825 684.823975,925.967346 
	C683.582581,922.908569 681.810913,920.065002 680.000122,916.434387 
M428.654358,928.314209 
	C430.142059,926.211243 432.795868,924.171570 432.914062,921.994202 
	C433.405609,912.936768 433.641327,903.799133 432.954041,894.768372 
	C432.528595,889.178528 427.701935,886.310913 421.323364,886.109619 
	C414.733795,885.901672 409.229279,888.631836 408.745850,894.143921 
	C407.926849,903.482483 407.626770,913.056519 408.792450,922.319641 
	C409.741394,929.860596 418.800018,932.339539 428.654358,928.314209 
M590.694702,886.110046 
	C581.743408,887.666504 578.945068,890.873169 578.896301,899.737671 
	C578.862366,905.902893 578.794006,912.070679 578.921570,918.233521 
	C579.078247,925.799927 583.210449,929.927124 590.669189,930.233887 
	C599.143372,930.582397 603.884827,927.208496 604.496826,919.406250 
	C605.055054,912.290039 605.111267,905.079407 604.671265,897.954651 
	C604.171936,889.870850 600.217834,886.667175 590.694702,886.110046 
M582.597900,481.134308 
	C583.708679,479.949860 584.819519,478.765411 585.269104,478.286041 
	C577.712036,470.658875 570.396423,463.275330 563.194458,456.006561 
	C563.194458,470.174225 563.194458,484.786957 563.194458,500.979218 
	C570.111023,493.901978 576.107178,487.766479 582.597900,481.134308 
M645.221130,895.650330 
	C645.221252,894.151489 645.537903,892.562134 645.141968,891.176453 
	C644.637878,889.412537 643.721008,886.510986 642.694702,886.381714 
	C639.291382,885.953247 640.165222,889.000549 640.147156,890.976807 
	C640.065063,899.968506 640.181274,908.963196 640.007935,917.952576 
	C639.911743,922.942810 637.373718,925.472107 632.811646,925.772949 
	C627.408997,926.129089 624.218811,923.180786 624.135437,917.310669 
	C624.002930,907.986267 624.170776,898.657349 623.997009,889.334290 
	C623.976990,888.256958 622.592163,887.205078 621.840149,886.141357 
	C620.890991,887.197449 619.136230,888.239807 619.118103,889.311646 
	C618.948853,899.299011 618.801819,909.302795 619.211975,919.278625 
	C619.515747,926.663879 624.426270,930.362244 632.484314,930.220398 
	C640.518372,930.078857 644.835999,926.224792 645.061218,918.591858 
	C645.277405,911.270508 645.180420,903.939941 645.221130,895.650330 
M487.105286,927.078613 
	C488.500977,928.062866 489.851807,929.811279 491.300262,929.896362 
	C496.942841,930.227661 502.622009,930.169189 508.274506,929.937927 
	C509.749725,929.877625 511.177979,928.668396 512.627808,927.986877 
	C511.175140,927.100525 509.762848,925.539551 508.262512,925.449707 
	C503.007629,925.135193 497.722382,925.327820 492.619965,925.327820 
	C492.619965,919.862000 492.619965,915.103149 492.619965,910.126404 
	C495.309967,910.126404 497.663727,910.342651 499.947357,910.036072 
	C501.104706,909.880737 502.135345,908.781555 503.223267,908.109070 
	C502.200195,907.395569 501.238129,906.206299 500.141632,906.065735 
	C497.710022,905.754089 495.210968,905.968689 492.497955,905.968689 
	C492.497955,900.820007 492.497955,896.069519 492.497955,890.905823 
	C497.873505,890.905823 503.189087,891.072632 508.481323,890.794739 
	C509.899017,890.720276 511.245453,889.288940 512.624573,888.480469 
	C511.311310,887.684998 510.027771,886.267456 508.679565,886.203003 
	C503.196594,885.941101 497.684265,886.291809 492.201538,886.027466 
	C488.267303,885.837769 486.948700,887.223083 487.019623,891.177551 
	C487.228546,902.830933 487.094635,914.490356 487.105286,927.078613 
M750.389282,930.031616 
	C751.388245,930.031616 752.457764,930.262146 753.371155,929.982605 
	C755.170776,929.431763 758.367859,928.625916 758.381897,927.876709 
	C758.451477,924.164612 755.229309,925.438477 753.164978,925.375732 
	C748.253967,925.226379 743.335449,925.327637 738.667908,925.327637 
	C738.667908,919.786316 738.667908,915.052185 738.667908,910.125000 
	C741.573608,910.125000 744.087280,910.317688 746.544128,910.028320 
	C747.501709,909.915588 748.331421,908.717346 749.219360,908.013489 
	C748.332520,907.332092 747.496582,906.161621 746.549011,906.062927 
	C743.942932,905.791443 741.289978,905.969238 738.456421,905.969238 
	C738.456421,900.777649 738.456421,896.029663 738.456421,890.902527 
	C744.291931,890.902527 749.937988,891.029358 755.568359,890.789429 
	C756.623291,890.744446 757.615662,889.231628 758.636841,888.396118 
	C757.624207,887.628967 756.632019,886.231506 755.595520,886.197754 
	C749.275391,885.992249 742.934204,885.903198 736.627869,886.263062 
	C735.388184,886.333801 733.276367,888.516541 733.250122,889.760681 
	C732.994141,901.909485 733.114380,914.065857 733.081116,926.219910 
	C733.073792,928.884705 734.070740,930.178650 736.933167,930.071350 
	C741.089722,929.915466 745.256409,930.031555 750.389282,930.031616 
M698.451172,890.077820 
	C693.816223,897.618286 695.562927,903.877502 703.418762,907.673401 
	C706.097778,908.967834 708.934265,909.956848 711.540527,911.376038 
	C714.998840,913.259094 716.409119,916.421814 715.564697,920.220398 
	C714.659790,924.291321 711.397949,926.008362 707.678467,925.610168 
	C704.889893,925.311646 702.268738,923.580139 699.533020,922.598145 
	C698.341919,922.170593 697.050476,922.022644 695.804626,921.747681 
	C695.952148,923.218262 695.539734,925.203552 696.340027,926.074036 
	C700.797424,930.922363 706.638184,931.044312 712.518616,929.772705 
	C717.416199,928.713623 720.326782,924.712463 720.880188,919.193604 
	C721.460510,913.406006 719.009338,908.917297 713.612061,906.231384 
	C710.644897,904.754944 707.203674,903.965820 704.664978,901.984314 
	C702.892334,900.600586 701.260681,897.611023 701.481140,895.543030 
	C701.662842,893.838806 704.488831,891.463745 706.444031,891.125244 
	C709.354797,890.621460 712.523254,891.757812 715.597656,891.971924 
	C716.802673,892.055908 718.049988,891.533813 719.278015,891.287659 
	C718.634766,890.032776 718.278748,888.014587 717.301697,887.646973 
	C710.967590,885.263306 704.671265,884.813843 698.451172,890.077820 
M470.154907,906.864563 
	C471.756134,901.812500 473.408051,896.775696 474.932495,891.700562 
	C475.508606,889.782532 477.072906,887.123657 473.748596,886.569885 
	C472.735748,886.401184 470.603546,888.794922 470.104889,890.369995 
	C466.817596,900.752625 463.836456,911.232239 460.518433,922.484009 
	C459.771393,920.143311 459.246674,918.588928 458.778473,917.017578 
	C456.035126,907.811768 453.396088,898.572876 450.465302,889.427368 
	C450.058899,888.159363 448.234344,887.345825 447.066284,886.321838 
	C446.580566,887.763550 445.369659,889.418396 445.721130,890.613953 
	C449.273438,902.697998 453.011688,914.729553 456.911774,926.706116 
	C457.363892,928.094421 459.334900,930.156128 460.210297,929.978333 
	C461.703766,929.674988 463.561401,928.082397 464.083008,926.611816 
	C466.294495,920.377075 468.070526,913.987854 470.154907,906.864563 
M809.246338,922.286316 
	C809.246338,918.343201 809.246338,914.400085 809.246338,910.118652 
	C812.253601,910.118652 814.762085,910.343384 817.197327,910.018921 
	C818.323669,909.868835 819.307251,908.647400 820.355530,907.911743 
	C819.240967,907.265442 818.176270,906.199951 817.001526,906.060120 
	C814.567932,905.770386 812.075684,905.972717 809.468506,905.972717 
	C809.468506,900.760193 809.468506,896.009705 809.468506,890.900757 
	C814.664917,890.900757 819.653931,891.086548 824.614807,890.793945 
	C826.220520,890.699280 827.752319,889.350281 829.317932,888.575073 
	C827.852966,887.749817 826.422607,886.295349 824.916870,886.212708 
	C819.602112,885.920959 814.253967,886.274170 808.933533,886.039734 
	C805.203247,885.875366 803.971802,887.268188 804.034973,890.960999 
	C804.217163,901.619385 803.991455,912.284729 804.179993,922.942932 
	C804.223511,925.403687 802.429565,929.674316 806.665222,929.796875 
	C811.317993,929.931458 808.448486,925.505615 809.246338,922.286316 
M560.744080,905.333191 
	C563.003418,901.096130 565.462158,896.948608 567.423950,892.577942 
	C568.208008,890.830994 568.643005,887.175720 567.958008,886.814514 
	C564.379211,884.927429 564.180786,888.774292 563.156433,890.625061 
	C560.145752,896.064209 557.433960,901.668701 554.233826,907.935608 
	C551.122986,901.851013 548.506897,896.335144 545.491394,891.047119 
	C544.400208,889.133484 544.373962,884.584412 540.482178,886.683289 
	C536.563477,888.796631 540.472778,891.373657 541.395447,893.295471 
	C546.274231,903.457764 553.935120,912.595581 551.910339,925.125916 
	C551.674316,926.586487 553.440735,928.370605 554.278809,930.004761 
	C555.149475,928.358521 556.684082,926.747314 556.773315,925.059753 
	C557.119446,918.513123 555.862793,911.735596 560.744080,905.333191 
M375.099304,918.467163 
	C375.100708,921.124329 374.772247,923.841431 375.239349,926.414062 
	C375.481689,927.748840 377.083374,929.809814 378.153351,929.862244 
	C384.702301,930.183228 391.274872,930.022827 397.809967,930.022827 
	C397.931061,925.492249 397.932404,925.413452 394.474915,925.354675 
	C389.864075,925.276184 385.250885,925.335266 380.246490,925.335266 
	C380.246490,913.365479 380.335876,901.942688 380.136963,890.524963 
	C380.111176,889.045166 378.596832,887.591248 377.772003,886.125366 
	C376.881134,887.608337 375.260162,889.071533 375.219360,890.577576 
	C374.976715,899.539001 375.099335,908.510315 375.099304,918.467163 
M775.246277,901.510437 
	C775.246338,897.524902 775.431763,893.525452 775.134216,889.562256 
	C775.044250,888.364868 773.615234,887.268127 772.799622,886.125305 
	C771.900513,887.266907 770.237610,888.396667 770.219849,889.551880 
	C770.030823,901.837646 770.018250,914.128845 770.235107,926.413757 
	C770.256653,927.633362 772.067505,929.808899 773.130432,929.861145 
	C779.681885,930.183105 786.257019,930.022644 792.790588,930.022644 
	C792.949829,925.495972 792.951233,925.415161 789.499634,925.355103 
	C784.888123,925.274780 780.274109,925.335266 775.246277,925.335266 
	C775.246277,917.370300 775.246277,909.938782 775.246277,901.510437 
z"/>
<path fill="#413670" opacity="1.000000" stroke="none" 
	d="
M377.097076,280.904114 
	C395.170380,298.902283 413.029602,316.616455 430.694916,334.521912 
	C432.324066,336.173248 433.560669,339.042236 433.563965,341.347870 
	C433.704895,440.000610 433.704803,538.653564 433.565887,637.306335 
	C433.562592,639.639404 432.335602,642.483459 430.732697,644.210510 
	C424.615326,650.801697 418.163208,657.087769 411.701141,663.348450 
	C410.502563,664.509583 408.686981,665.716797 407.143433,665.733582 
	C391.172638,665.906860 375.199219,665.840149 358.915527,665.840149 
	C358.915527,531.651855 358.915527,397.747314 358.915527,262.373779 
	C365.371857,268.968506 371.100952,274.820374 377.097076,280.904114 
z"/>
<path fill="#6560CE" opacity="1.000000" stroke="none" 
	d="
M768.263855,409.000000 
	C768.263855,386.170502 768.207458,363.840637 768.355896,341.512115 
	C768.369873,339.417542 769.075806,336.735931 770.471191,335.330261 
	C794.052429,311.575897 817.793640,287.980286 841.506897,264.357056 
	C841.728577,264.136261 842.051025,264.016663 842.853638,263.530396 
	C842.853638,397.621674 842.853638,531.388367 842.853638,665.524414 
	C818.281006,665.524414 793.695618,665.524414 768.263672,665.524414 
	C768.263672,580.277527 768.263672,494.888763 768.263855,409.000000 
z"/>
<path fill="#8480D7" opacity="1.000000" stroke="none" 
	d="
M741.190674,537.000000 
	C741.190857,580.103394 741.190857,622.706848 741.190857,665.536926 
	C739.579346,665.691833 738.619080,665.864075 737.658691,665.864746 
	C715.326660,665.880737 692.994263,665.818726 670.662903,665.941223 
	C667.182617,665.960327 666.056641,664.854309 666.060852,661.354309 
	C666.141724,593.858215 666.105469,526.362000 666.203186,458.865967 
	C666.205750,457.096893 666.956360,454.846222 668.170410,453.632935 
	C691.737976,430.080170 715.425842,406.647888 739.099182,383.201050 
	C739.434387,382.868988 739.899231,382.667755 741.190552,381.830048 
	C741.190552,433.802582 741.190552,485.151276 741.190674,537.000000 
z"/>
<path fill="#A29FE2" opacity="1.000000" stroke="none" 
	d="
M564.069702,554.856567 
	C561.859985,543.689697 567.768433,536.960022 575.018005,529.983887 
	C595.062256,510.695374 614.508057,490.784393 634.133667,471.062866 
	C635.401733,469.788574 636.187317,468.034058 637.197327,466.502960 
	C637.694885,466.861084 638.192505,467.219208 638.690063,467.577332 
	C638.690063,533.447266 638.690063,599.317200 638.690063,665.479370 
	C614.171631,665.479370 589.530884,665.479370 564.093811,665.479370 
	C564.093811,628.699219 564.093811,591.958130 564.069702,554.856567 
z"/>
<path fill="#675E8B" opacity="1.000000" stroke="none" 
	d="
M499.533234,404.466858 
	C510.770844,415.625427 521.855469,426.439636 532.647827,437.538025 
	C534.382446,439.321838 535.689514,442.366058 535.711121,444.840607 
	C535.932068,470.168610 535.898315,495.499603 535.750366,520.828674 
	C535.738098,522.912354 534.948975,525.566223 533.541626,526.981445 
	C509.929901,550.725220 486.162689,574.314331 462.422394,597.930237 
	C462.206329,598.145203 461.887299,598.256653 461.221588,598.649231 
	C461.221588,521.420837 461.221588,444.431671 461.221588,366.155823 
	C474.293640,379.227600 486.788483,391.722198 499.533234,404.466858 
z"/>
<path fill="#7B72AA" opacity="1.000000" stroke="none" 
	d="
M644.106934,289.107147 
	C629.767456,303.501709 615.674988,317.643280 601.920044,331.446106 
	C578.784912,308.295624 555.868591,285.364105 533.039062,262.519501 
	C578.199951,262.519501 623.809204,262.519501 670.703857,262.519501 
	C661.402283,271.815704 652.878113,280.334930 644.106934,289.107147 
z"/>
<path fill="#746BA1" opacity="1.000000" stroke="none" 
	d="
M512.765381,591.775146 
	C520.588379,583.789856 528.169434,576.063538 536.618896,567.452271 
	C536.618896,600.936279 536.618896,633.153870 536.618896,665.643616 
	C504.290710,665.643616 472.046783,665.643616 439.845276,665.643616 
	C464.050934,641.127808 488.287201,616.580933 512.765381,591.775146 
z"/>
<path fill="#030304" opacity="1.000000" stroke="none" 
	d="
M434.967285,830.239746 
	C425.101624,830.550476 415.642029,830.934509 406.186707,830.849365 
	C403.121826,830.821777 401.104919,828.739563 401.111176,825.230469 
	C401.146149,805.605591 401.016968,785.978882 401.313385,766.358398 
	C401.340302,764.575439 403.933289,761.360962 405.420593,761.309875 
	C414.860474,760.985107 424.352997,760.970093 433.770416,761.651367 
	C439.824249,762.089233 444.462555,765.808411 445.820343,771.938599 
	C447.409119,779.111816 447.260773,786.219360 440.893127,791.565796 
	C440.433197,791.951965 439.923462,792.278809 438.936737,792.997437 
	C450.167572,797.920227 448.758881,807.404236 447.757416,816.267456 
	C446.953125,823.385620 442.745178,828.405212 434.967285,830.239746 
M423.323578,798.866333 
	C420.923553,798.866333 418.523499,798.866333 416.313599,798.866333 
	C416.313599,805.628479 416.313599,811.682251 416.313599,817.999512 
	C419.087463,817.999512 421.555542,818.031311 424.022552,817.993408 
	C431.062042,817.885193 433.110016,815.796753 433.190796,808.700317 
	C433.278900,800.960388 431.630829,799.149170 423.323578,798.866333 
M430.741516,776.747803 
	C426.536774,771.455444 421.064484,774.918152 416.258484,773.890076 
	C416.258484,778.725098 416.258484,782.813477 416.258484,787.141907 
	C418.822449,787.141907 421.125153,787.149109 423.427826,787.140564 
	C430.456116,787.114624 432.462219,784.554565 430.741516,776.747803 
z"/>
<path fill="#030304" opacity="1.000000" stroke="none" 
	d="
M639.218140,789.065430 
	C636.266296,793.501099 633.422607,797.554749 629.778625,802.749084 
	C632.238770,807.217224 635.636353,813.401184 639.046814,819.577942 
	C641.756165,824.484741 640.941895,827.451294 636.110291,830.192566 
	C631.558044,832.775269 628.245605,831.741455 625.657776,826.798401 
	C622.354004,820.487976 618.881592,814.247009 615.968872,807.757507 
	C614.139709,803.681946 611.741272,802.126953 607.094788,803.794983 
	C607.094788,810.557495 607.128601,817.513367 607.082947,824.468628 
	C607.052185,829.154663 605.007996,830.941284 599.802673,831.003479 
	C594.668152,831.064880 592.164551,829.134338 592.151489,824.720581 
	C592.093933,805.255188 592.020935,785.787964 592.301880,766.326416 
	C592.328003,764.516541 594.760803,761.236694 596.153503,761.194458 
	C605.439453,760.913269 614.883850,760.392273 624.014282,761.734619 
	C637.624329,763.735596 642.627441,773.422607 639.218140,789.065430 
M610.706177,791.802917 
	C613.528748,791.692810 616.407104,791.895386 619.161560,791.403748 
	C624.000305,790.540039 625.600647,787.492554 625.141357,781.067993 
	C624.833313,776.759033 622.582153,774.264893 618.256470,774.041748 
	C614.662781,773.856384 611.051880,774.003784 607.083435,774.003784 
	C607.083435,779.392944 606.953857,784.360413 607.204956,789.308472 
	C607.249207,790.180969 608.884644,790.972656 610.706177,791.802917 
z"/>
<path fill="#040304" opacity="1.000000" stroke="none" 
	d="
M705.007019,812.916626 
	C702.406921,824.725159 695.758057,830.488831 684.187927,830.955322 
	C677.712463,831.216370 671.217468,831.045593 664.731995,830.991882 
	C660.362854,830.955688 658.053467,829.015137 658.080322,824.284668 
	C658.189209,805.159912 658.182434,786.033875 658.074280,766.909119 
	C658.054321,763.375854 659.799805,761.124878 662.847900,761.113403 
	C671.952271,761.079224 681.167542,760.854858 690.134460,762.137512 
	C699.355164,763.456482 704.801331,770.630188 705.027039,780.067566 
	C705.285339,790.867432 705.039429,801.679382 705.007019,812.916626 
M688.117859,776.484009 
	C683.353638,775.308899 678.589417,774.133789 673.314758,772.832825 
	C673.314758,788.801941 673.314758,803.206360 673.314758,817.998901 
	C675.655334,817.998901 677.786682,818.018982 679.917542,817.995422 
	C687.645142,817.909912 690.055908,815.592773 690.154907,807.804932 
	C690.258667,799.640198 690.281738,791.471069 690.112305,783.308533 
	C690.069336,781.237000 689.161560,779.183350 688.117859,776.484009 
z"/>
<path fill="#050406" opacity="1.000000" stroke="none" 
	d="
M571.831665,776.356934 
	C572.125122,787.731018 572.817749,798.716919 572.431641,809.664673 
	C571.906921,824.544067 563.623047,831.837891 548.711182,831.631165 
	C533.745239,831.423828 526.155640,824.500610 525.535583,809.614380 
	C525.127747,799.823120 525.215393,789.972351 525.787781,780.189575 
	C526.423096,769.330872 531.686035,763.168457 542.419312,761.682495 
	C548.286926,760.870178 554.655823,761.697998 560.481506,763.102234 
	C566.725525,764.607178 570.081909,769.820679 571.831665,776.356934 
M540.347107,793.520874 
	C540.510559,799.822571 540.364258,806.152771 540.939392,812.416687 
	C541.368835,817.093872 545.016724,818.488525 549.278687,818.395935 
	C553.399170,818.306335 556.913696,816.543457 557.065369,812.270935 
	C557.441528,801.671387 557.380249,791.041748 557.044983,780.438416 
	C556.900757,775.877136 553.525696,774.054688 549.122803,773.971497 
	C544.443420,773.882996 541.342224,775.827759 540.836365,780.632080 
	C540.421387,784.572388 540.491760,788.563721 540.347107,793.520874 
z"/>
<path fill="#040304" opacity="1.000000" stroke="none" 
	d="
M485.004578,760.904419 
	C492.166473,760.904419 498.834564,761.064880 505.490540,760.849609 
	C510.130157,760.699646 511.257141,763.435547 511.262787,767.135681 
	C511.268646,770.945679 510.295471,774.056641 505.416382,773.984131 
	C497.480377,773.866028 489.541321,773.952271 481.351379,773.952271 
	C481.351379,779.369629 481.351379,784.434692 481.351379,790.010315 
	C485.548584,790.010315 489.653778,790.083618 493.755157,789.989746 
	C497.874908,789.895447 500.017700,791.748474 499.999847,795.910889 
	C499.981903,800.099426 497.792603,801.839050 493.675232,801.689636 
	C489.707245,801.545593 485.729980,801.658447 481.427246,801.658447 
	C481.427246,807.039001 481.427246,812.132141 481.427246,817.993164 
	C488.749298,817.993164 496.325989,817.989014 503.902710,817.994507 
	C510.070312,817.998962 512.524231,820.677307 510.904358,826.574219 
	C510.415222,828.354919 507.818268,830.752502 506.116791,830.810486 
	C494.969360,831.190247 483.802368,831.056396 472.642487,830.980469 
	C468.310425,830.950989 466.025513,829.011658 466.063538,824.225769 
	C466.214325,805.237671 466.193787,786.247192 466.073486,767.258606 
	C466.046295,762.965820 468.107971,761.129639 472.014923,760.984192 
	C476.173706,760.829224 480.341675,760.920593 485.004578,760.904419 
z"/>
<path fill="#040304" opacity="1.000000" stroke="none" 
	d="
M769.171143,831.006836 
	C759.945435,830.986755 759.125488,830.153748 759.125427,821.281433 
	C759.125366,803.621887 759.120178,785.962280 759.128418,768.302734 
	C759.131042,762.640747 760.546021,760.986755 765.969238,760.937317 
	C776.963928,760.837097 787.960754,760.972961 798.955383,760.871948 
	C803.411072,760.830994 804.236023,763.716919 804.247864,767.101257 
	C804.260071,770.601929 803.610840,773.933105 798.949768,773.942017 
	C790.841187,773.957458 782.732544,773.946350 774.361328,773.946350 
	C774.361328,779.349060 774.361328,784.414429 774.361328,790.008789 
	C778.693848,790.008789 782.962158,790.027039 787.230225,790.003418 
	C791.198059,789.981506 793.019104,792.066895 792.993835,795.887695 
	C792.968811,799.678955 791.248230,801.767029 787.196289,801.659180 
	C783.058777,801.549072 778.916077,801.634766 774.436646,801.634766 
	C774.436646,807.030029 774.436646,812.121521 774.436646,817.993164 
	C781.736023,817.993164 789.312622,817.989136 796.889221,817.994324 
	C803.007324,817.998535 804.909729,820.184998 804.159546,826.118164 
	C803.738220,829.450195 802.206421,831.098816 798.633057,831.051086 
	C788.972046,830.921753 779.308105,831.006775 769.171143,831.006836 
z"/>
<path fill="#040304" opacity="1.000000" stroke="none" 
	d="
M739.070679,765.534546 
	C739.093384,784.979126 739.096985,803.974121 739.094238,822.969177 
	C739.093323,829.136414 737.441650,830.943787 731.786499,831.004272 
	C726.163147,831.064392 724.132568,829.013916 724.129272,823.188782 
	C724.118896,804.860229 724.200195,786.531128 724.061462,768.203613 
	C724.034119,764.590210 724.712219,761.674744 728.638672,761.236816 
	C732.582153,760.796997 737.155090,759.590637 739.070679,765.534546 
z"/>
<path fill="#0E0D10" opacity="1.000000" stroke="none" 
	d="
M680.122681,916.786133 
	C681.810913,920.065002 683.582581,922.908569 684.823975,925.967346 
	C685.226013,926.957825 684.237549,928.512695 683.885132,929.809387 
	C682.689209,929.269592 680.931396,929.056885 680.394043,928.133728 
	C677.977173,923.981995 675.644104,919.738892 673.785828,915.316528 
	C671.969666,910.994263 669.164612,909.730286 664.246521,911.235229 
	C664.246521,915.981506 664.413696,920.910461 664.142700,925.815247 
	C664.063477,927.248535 662.736816,928.612915 661.981995,930.008850 
	C661.021301,928.594482 659.254089,927.195435 659.226868,925.763306 
	C659.002075,913.936768 659.166687,902.103455 659.056519,890.273682 
	C659.026123,887.009460 660.236633,885.809509 663.492004,886.052795 
	C667.631592,886.362061 671.856750,885.932617 675.935852,886.546692 
	C681.670288,887.409912 684.510742,890.545776 685.123901,895.520508 
	C686.001709,902.641846 684.215759,906.391296 678.674011,909.099060 
	C678.099548,909.379700 677.561523,909.734863 676.670532,910.249573 
	C677.839355,912.420776 678.919739,914.427612 680.122681,916.786133 
M664.227112,894.703735 
	C664.227112,898.446472 664.227112,902.189209 664.227112,906.221558 
	C667.336487,906.221558 669.798889,906.266724 672.258911,906.210815 
	C675.798401,906.130310 679.108459,905.187195 679.882812,901.285950 
	C680.588318,897.731506 681.068848,893.170166 676.668884,891.976440 
	C672.828918,890.934509 668.476318,891.773071 664.352539,891.874817 
	C664.295471,891.876221 664.268616,893.103882 664.227112,894.703735 
z"/>
<path fill="#0A090C" opacity="1.000000" stroke="none" 
	d="
M428.351746,928.542725 
	C418.800018,932.339539 409.741394,929.860596 408.792450,922.319641 
	C407.626770,913.056519 407.926849,903.482483 408.745850,894.143921 
	C409.229279,888.631836 414.733795,885.901672 421.323364,886.109619 
	C427.701935,886.310913 432.528595,889.178528 432.954041,894.768372 
	C433.641327,903.799133 433.405609,912.936768 432.914062,921.994202 
	C432.795868,924.171570 430.142059,926.211243 428.351746,928.542725 
M412.906799,903.608704 
	C412.941864,908.732971 412.797638,913.866760 413.067322,918.978638 
	C413.293549,923.266602 415.984711,925.545593 420.198486,925.744812 
	C424.249786,925.936340 427.873962,924.507507 428.108124,920.054810 
	C428.522888,912.167786 428.525482,904.225708 428.091278,896.340210 
	C427.840515,891.786377 424.104858,890.734131 420.066528,890.876953 
	C415.956329,891.022217 413.611938,893.188354 413.079681,897.189697 
	C412.841278,898.982056 413.001160,900.827393 412.906799,903.608704 
z"/>
<path fill="#0A090C" opacity="1.000000" stroke="none" 
	d="
M591.113831,886.109680 
	C600.217834,886.667175 604.171936,889.870850 604.671265,897.954651 
	C605.111267,905.079407 605.055054,912.290039 604.496826,919.406250 
	C603.884827,927.208496 599.143372,930.582397 590.669189,930.233887 
	C583.210449,929.927124 579.078247,925.799927 578.921570,918.233521 
	C578.794006,912.070679 578.862366,905.902893 578.896301,899.737671 
	C578.945068,890.873169 581.743408,887.666504 591.113831,886.109680 
M599.719177,916.909424 
	C599.698669,910.782837 599.917725,904.643188 599.587036,898.533447 
	C599.284424,892.941956 596.539429,890.678101 591.317200,890.878113 
	C586.425659,891.065430 584.105835,893.493225 583.990417,898.935303 
	C583.867615,904.723938 583.937378,910.517456 583.971130,916.308472 
	C584.007812,922.581909 586.111877,925.371704 591.022278,925.776428 
	C596.054626,926.191223 598.389343,924.021545 599.719177,916.909424 
z"/>
<path fill="#8A85A5" opacity="1.000000" stroke="none" 
	d="
M582.350647,481.382629 
	C576.107178,487.766479 570.111023,493.901978 563.194458,500.979218 
	C563.194458,484.786957 563.194458,470.174225 563.194458,456.006561 
	C570.396423,463.275330 577.712036,470.658875 585.269104,478.286041 
	C584.819519,478.765411 583.708679,479.949860 582.350647,481.382629 
z"/>
<path fill="#050406" opacity="1.000000" stroke="none" 
	d="
M645.221069,896.131836 
	C645.180420,903.939941 645.277405,911.270508 645.061218,918.591858 
	C644.835999,926.224792 640.518372,930.078857 632.484314,930.220398 
	C624.426270,930.362244 619.515747,926.663879 619.211975,919.278625 
	C618.801819,909.302795 618.948853,899.299011 619.118103,889.311646 
	C619.136230,888.239807 620.890991,887.197449 621.840088,886.141357 
	C622.592163,887.205078 623.976990,888.256958 623.997009,889.334290 
	C624.170776,898.657349 624.002930,907.986267 624.135437,917.310669 
	C624.218811,923.180786 627.408997,926.129089 632.811646,925.772949 
	C637.373718,925.472107 639.911743,922.942810 640.007935,917.952576 
	C640.181274,908.963196 640.065063,899.968506 640.147156,890.976807 
	C640.165222,889.000549 639.291382,885.953247 642.694702,886.381714 
	C643.721008,886.510986 644.637878,889.412537 645.141968,891.176453 
	C645.537903,892.562134 645.221252,894.151489 645.221069,896.131836 
z"/>
<path fill="#100F12" opacity="1.000000" stroke="none" 
	d="
M487.100098,926.613037 
	C487.094635,914.490356 487.228546,902.830933 487.019623,891.177551 
	C486.948700,887.223083 488.267303,885.837769 492.201538,886.027466 
	C497.684265,886.291809 503.196594,885.941101 508.679565,886.203003 
	C510.027771,886.267456 511.311310,887.684998 512.624573,888.480469 
	C511.245453,889.288940 509.899017,890.720276 508.481323,890.794739 
	C503.189087,891.072632 497.873505,890.905823 492.497955,890.905823 
	C492.497955,896.069519 492.497955,900.820007 492.497955,905.968689 
	C495.210968,905.968689 497.710022,905.754089 500.141632,906.065735 
	C501.238129,906.206299 502.200195,907.395569 503.223267,908.109131 
	C502.135345,908.781555 501.104706,909.880737 499.947357,910.036072 
	C497.663727,910.342651 495.309967,910.126404 492.619965,910.126404 
	C492.619965,915.103149 492.619965,919.862000 492.619965,925.327820 
	C497.722382,925.327820 503.007629,925.135193 508.262512,925.449707 
	C509.762848,925.539551 511.175140,927.100525 512.627808,927.986816 
	C511.177979,928.668396 509.749725,929.877625 508.274506,929.937927 
	C502.622009,930.169189 496.942841,930.227661 491.300262,929.896362 
	C489.851807,929.811279 488.500977,928.062866 487.100098,926.613037 
z"/>
<path fill="#100F12" opacity="1.000000" stroke="none" 
	d="
M749.904053,930.031616 
	C745.256409,930.031555 741.089722,929.915466 736.933167,930.071350 
	C734.070740,930.178650 733.073792,928.884705 733.081116,926.219910 
	C733.114380,914.065857 732.994141,901.909485 733.250122,889.760681 
	C733.276367,888.516541 735.388184,886.333801 736.627869,886.263062 
	C742.934204,885.903198 749.275391,885.992249 755.595520,886.197754 
	C756.632019,886.231506 757.624207,887.628967 758.636841,888.396118 
	C757.615662,889.231628 756.623291,890.744446 755.568359,890.789429 
	C749.937988,891.029358 744.291931,890.902527 738.456421,890.902527 
	C738.456421,896.029663 738.456421,900.777649 738.456421,905.969238 
	C741.289978,905.969238 743.942932,905.791443 746.549011,906.062927 
	C747.496582,906.161621 748.332520,907.332092 749.219360,908.013489 
	C748.331421,908.717346 747.501709,909.915588 746.544128,910.028320 
	C744.087280,910.317688 741.573608,910.125000 738.667908,910.125000 
	C738.667908,915.052185 738.667908,919.786316 738.667908,925.327637 
	C743.335449,925.327637 748.253967,925.226379 753.164978,925.375732 
	C755.229309,925.438477 758.451477,924.164612 758.381897,927.876709 
	C758.367859,928.625916 755.170776,929.431763 753.371155,929.982605 
	C752.457764,930.262146 751.388245,930.031616 749.904053,930.031616 
z"/>
<path fill="#0A090C" opacity="1.000000" stroke="none" 
	d="
M698.725769,889.807983 
	C704.671265,884.813843 710.967590,885.263306 717.301697,887.646973 
	C718.278748,888.014587 718.634766,890.032776 719.278015,891.287659 
	C718.049988,891.533813 716.802673,892.055908 715.597656,891.971924 
	C712.523254,891.757812 709.354797,890.621460 706.444031,891.125244 
	C704.488831,891.463745 701.662842,893.838806 701.481140,895.543030 
	C701.260681,897.611023 702.892334,900.600586 704.664978,901.984314 
	C707.203674,903.965820 710.644897,904.754944 713.612061,906.231384 
	C719.009338,908.917297 721.460510,913.406006 720.880188,919.193604 
	C720.326782,924.712463 717.416199,928.713623 712.518616,929.772705 
	C706.638184,931.044312 700.797424,930.922363 696.340027,926.074036 
	C695.539734,925.203552 695.952148,923.218262 695.804626,921.747681 
	C697.050476,922.022644 698.341919,922.170593 699.533020,922.598145 
	C702.268738,923.580139 704.889893,925.311646 707.678467,925.610168 
	C711.397949,926.008362 714.659790,924.291321 715.564697,920.220398 
	C716.409119,916.421814 714.998840,913.259094 711.540527,911.376038 
	C708.934265,909.956848 706.097778,908.967834 703.418762,907.673401 
	C695.562927,903.877502 693.816223,897.618286 698.725769,889.807983 
z"/>
<path fill="#0A090C" opacity="1.000000" stroke="none" 
	d="
M470.080261,907.259827 
	C468.070526,913.987854 466.294495,920.377075 464.083008,926.611816 
	C463.561401,928.082397 461.703766,929.674988 460.210297,929.978333 
	C459.334900,930.156128 457.363892,928.094421 456.911774,926.706116 
	C453.011688,914.729553 449.273438,902.697998 445.721130,890.613953 
	C445.369659,889.418396 446.580566,887.763550 447.066284,886.321899 
	C448.234344,887.345825 450.058899,888.159363 450.465302,889.427368 
	C453.396088,898.572876 456.035126,907.811768 458.778473,917.017578 
	C459.246674,918.588928 459.771393,920.143311 460.518433,922.484009 
	C463.836456,911.232239 466.817596,900.752625 470.104889,890.369995 
	C470.603546,888.794922 472.735748,886.401184 473.748596,886.569885 
	C477.072906,887.123657 475.508606,889.782532 474.932495,891.700562 
	C473.408051,896.775696 471.756134,901.812500 470.080261,907.259827 
z"/>
<path fill="#0E0D10" opacity="1.000000" stroke="none" 
	d="
M809.246338,922.750732 
	C808.448486,925.505615 811.317993,929.931458 806.665222,929.796875 
	C802.429565,929.674316 804.223511,925.403687 804.179993,922.942932 
	C803.991455,912.284729 804.217163,901.619385 804.034973,890.960999 
	C803.971802,887.268188 805.203247,885.875366 808.933533,886.039734 
	C814.253967,886.274170 819.602112,885.920959 824.916870,886.212708 
	C826.422607,886.295349 827.852966,887.749817 829.317932,888.575073 
	C827.752319,889.350281 826.220520,890.699280 824.614807,890.793945 
	C819.653931,891.086548 814.664917,890.900757 809.468506,890.900757 
	C809.468506,896.009705 809.468506,900.760193 809.468506,905.972717 
	C812.075684,905.972717 814.567932,905.770386 817.001526,906.060120 
	C818.176270,906.199951 819.240967,907.265442 820.355530,907.911743 
	C819.307251,908.647400 818.323669,909.868835 817.197327,910.018921 
	C814.762085,910.343384 812.253601,910.118652 809.246338,910.118652 
	C809.246338,914.400085 809.246338,918.343201 809.246338,922.750732 
z"/>
<path fill="#0A090C" opacity="1.000000" stroke="none" 
	d="
M560.542480,905.652832 
	C555.862793,911.735596 557.119446,918.513123 556.773315,925.059753 
	C556.684082,926.747314 555.149475,928.358521 554.278809,930.004761 
	C553.440735,928.370605 551.674316,926.586487 551.910339,925.125916 
	C553.935120,912.595581 546.274231,903.457764 541.395447,893.295471 
	C540.472778,891.373657 536.563477,888.796631 540.482178,886.683289 
	C544.373962,884.584412 544.400208,889.133484 545.491394,891.047119 
	C548.506897,896.335144 551.122986,901.851013 554.233826,907.935608 
	C557.433960,901.668701 560.145752,896.064209 563.156433,890.625061 
	C564.180786,888.774292 564.379211,884.927429 567.958008,886.814514 
	C568.643005,887.175720 568.208008,890.830994 567.423950,892.577942 
	C565.462158,896.948608 563.003418,901.096130 560.542480,905.652832 
z"/>
<path fill="#0E0D10" opacity="1.000000" stroke="none" 
	d="
M375.099304,917.972717 
	C375.099335,908.510315 374.976715,899.539001 375.219360,890.577576 
	C375.260162,889.071533 376.881134,887.608337 377.772034,886.125366 
	C378.596832,887.591248 380.111176,889.045166 380.136963,890.524963 
	C380.335876,901.942688 380.246490,913.365479 380.246490,925.335266 
	C385.250885,925.335266 389.864075,925.276184 394.474915,925.354675 
	C397.932404,925.413452 397.931061,925.492249 397.809967,930.022827 
	C391.274872,930.022827 384.702301,930.183228 378.153351,929.862244 
	C377.083374,929.809814 375.481689,927.748840 375.239349,926.414062 
	C374.772247,923.841431 375.100708,921.124329 375.099304,917.972717 
z"/>
<path fill="#0E0D10" opacity="1.000000" stroke="none" 
	d="
M775.246277,902.008911 
	C775.246277,909.938782 775.246277,917.370300 775.246277,925.335266 
	C780.274109,925.335266 784.888123,925.274780 789.499634,925.355103 
	C792.951233,925.415161 792.949829,925.495972 792.790588,930.022644 
	C786.257019,930.022644 779.681885,930.183105 773.130432,929.861145 
	C772.067505,929.808899 770.256653,927.633362 770.235107,926.413757 
	C770.018250,914.128845 770.030823,901.837646 770.219849,889.551880 
	C770.237610,888.396667 771.900513,887.266907 772.799683,886.125305 
	C773.615234,887.268127 775.044250,888.364868 775.134216,889.562256 
	C775.431763,893.525452 775.246338,897.524902 775.246277,902.008911 
z"/>
<path fill="#FBFBFD" opacity="1.000000" stroke="none" 
	d="
M423.783020,798.866333 
	C431.630829,799.149170 433.278900,800.960388 433.190796,808.700317 
	C433.110016,815.796753 431.062042,817.885193 424.022552,817.993408 
	C421.555542,818.031311 419.087463,817.999512 416.313599,817.999512 
	C416.313599,811.682251 416.313599,805.628479 416.313599,798.866333 
	C418.523499,798.866333 420.923553,798.866333 423.783020,798.866333 
z"/>
<path fill="#F8F8FA" opacity="1.000000" stroke="none" 
	d="
M430.868713,777.120361 
	C432.462219,784.554565 430.456116,787.114624 423.427826,787.140564 
	C421.125153,787.149109 418.822449,787.141907 416.258484,787.141907 
	C416.258484,782.813477 416.258484,778.725098 416.258484,773.890076 
	C421.064484,774.918152 426.536774,771.455444 430.868713,777.120361 
z"/>
<path fill="#F8F8FA" opacity="1.000000" stroke="none" 
	d="
M610.245728,791.802246 
	C608.884644,790.972656 607.249207,790.180969 607.204956,789.308472 
	C606.953857,784.360413 607.083435,779.392944 607.083435,774.003784 
	C611.051880,774.003784 614.662781,773.856384 618.256470,774.041748 
	C622.582153,774.264893 624.833313,776.759033 625.141357,781.067993 
	C625.600647,787.492554 624.000305,790.540039 619.161560,791.403748 
	C616.407104,791.895386 613.528748,791.692810 610.245728,791.802246 
z"/>
<path fill="#FBFBFD" opacity="1.000000" stroke="none" 
	d="
M688.384521,776.802734 
	C689.161560,779.183350 690.069336,781.237000 690.112305,783.308533 
	C690.281738,791.471069 690.258667,799.640198 690.154907,807.804932 
	C690.055908,815.592773 687.645142,817.909912 679.917542,817.995422 
	C677.786682,818.018982 675.655334,817.998901 673.314758,817.998901 
	C673.314758,803.206360 673.314758,788.801941 673.314758,772.832825 
	C678.589417,774.133789 683.353638,775.308899 688.384521,776.802734 
z"/>
<path fill="#F4F4F6" opacity="1.000000" stroke="none" 
	d="
M540.347046,793.026672 
	C540.491760,788.563721 540.421387,784.572388 540.836365,780.632080 
	C541.342224,775.827759 544.443420,773.882996 549.122803,773.971497 
	C553.525696,774.054688 556.900757,775.877136 557.044983,780.438416 
	C557.380249,791.041748 557.441528,801.671387 557.065369,812.270935 
	C556.913696,816.543457 553.399170,818.306335 549.278687,818.395935 
	C545.016724,818.488525 541.368835,817.093872 540.939392,812.416687 
	C540.364258,806.152771 540.510559,799.822571 540.347046,793.026672 
z"/>
<path fill="#F8F8FA" opacity="1.000000" stroke="none" 
	d="
M664.227356,894.231445 
	C664.268616,893.103882 664.295471,891.876221 664.352539,891.874817 
	C668.476318,891.773071 672.828918,890.934509 676.668884,891.976440 
	C681.068848,893.170166 680.588318,897.731506 679.882812,901.285950 
	C679.108459,905.187195 675.798401,906.130310 672.258911,906.210815 
	C669.798889,906.266724 667.336487,906.221558 664.227112,906.221558 
	C664.227112,902.189209 664.227112,898.446472 664.227356,894.231445 
z"/>
<path fill="#F8F8FA" opacity="1.000000" stroke="none" 
	d="
M412.943573,903.128662 
	C413.001160,900.827393 412.841278,898.982056 413.079681,897.189697 
	C413.611938,893.188354 415.956329,891.022217 420.066528,890.876953 
	C424.104858,890.734131 427.840515,891.786377 428.091278,896.340210 
	C428.525482,904.225708 428.522888,912.167786 428.108124,920.054810 
	C427.873962,924.507507 424.249786,925.936340 420.198486,925.744812 
	C415.984711,925.545593 413.293549,923.266602 413.067322,918.978638 
	C412.797638,913.866760 412.941864,908.732971 412.943573,903.128662 
z"/>
<path fill="#F8F8FA" opacity="1.000000" stroke="none" 
	d="
M599.674438,917.343445 
	C598.389343,924.021545 596.054626,926.191223 591.022278,925.776428 
	C586.111877,925.371704 584.007812,922.581909 583.971130,916.308472 
	C583.937378,910.517456 583.867615,904.723938 583.990417,898.935303 
	C584.105835,893.493225 586.425659,891.065430 591.317200,890.878113 
	C596.539429,890.678101 599.284424,892.941956 599.587036,898.533447 
	C599.917725,904.643188 599.698669,910.782837 599.674438,917.343445 
z"/>
</svg>